<mxfile host="65bd71144e">
    <diagram id="f45v1dXgneUqPd2lgdas" name="Page-1">
        <mxGraphModel dx="1625" dy="1203" grid="1" gridSize="10" guides="1" tooltips="1" connect="1" arrows="1" fold="1" page="1" pageScale="1" pageWidth="850" pageHeight="1100" background="#ffffff" math="0" shadow="0">
            <root>
                <mxCell id="0"/>
                <mxCell id="1" parent="0"/>
                <mxCell id="2" value="" style="rounded=0;whiteSpace=wrap;html=1;fillColor=#1ba1e2;fontColor=#FFFFFF;strokeColor=none;" vertex="1" parent="1">
                    <mxGeometry x="70" y="160" width="2700" height="900" as="geometry"/>
                </mxCell>
                <mxCell id="3" value="&lt;font style=&quot;font-size: 15px;&quot;&gt;&lt;b&gt;The analatics of last month&lt;/b&gt;&lt;/font&gt;" style="shape=card;whiteSpace=wrap;html=1;flipV=0;rotation=90;horizontal=0;flipH=1;" vertex="1" parent="1">
                    <mxGeometry x="160" y="70" width="59.99" height="240" as="geometry"/>
                </mxCell>
                <mxCell id="4" value="Note: We pass the sign process, you can find it if you want in: Customer Buy an Aplle sequance diagram." style="shape=process;whiteSpace=wrap;html=1;backgroundOutline=1;fontSize=15;fillColor=#fa6800;fontColor=#000000;strokeColor=#C73500;" vertex="1" parent="1">
                    <mxGeometry x="490" y="160" width="1000" height="60" as="geometry"/>
                </mxCell>
                <mxCell id="5" value="Cacher" style="shape=umlActor;verticalLabelPosition=bottom;verticalAlign=top;html=1;outlineConnect=0;fontSize=15;fillColor=#ffcccc;strokeColor=#36393d;" vertex="1" parent="1">
                    <mxGeometry x="130" y="250" width="30" height="60" as="geometry"/>
                </mxCell>
                <mxCell id="7" value="" style="line;strokeWidth=2;direction=south;html=1;fontSize=15;dashed=1;" vertex="1" parent="1">
                    <mxGeometry x="140" y="330" width="10" height="710" as="geometry"/>
                </mxCell>
                <mxCell id="8" value=": ServicesUi" style="rounded=0;whiteSpace=wrap;html=1;dashed=1;fontSize=15;fillColor=#008a00;fontColor=#ffffff;strokeColor=#005700;" vertex="1" parent="1">
                    <mxGeometry x="340" y="250" width="120" height="60" as="geometry"/>
                </mxCell>
                <mxCell id="9" value="" style="line;strokeWidth=2;direction=south;html=1;fontSize=15;dashed=1;" vertex="1" parent="1">
                    <mxGeometry x="395" y="310" width="10" height="550" as="geometry"/>
                </mxCell>
                <mxCell id="12" style="edgeStyle=orthogonalEdgeStyle;html=1;entryX=0;entryY=0;entryDx=0;entryDy=0;fontSize=15;" edge="1" parent="1" source="10" target="11">
                    <mxGeometry relative="1" as="geometry">
                        <Array as="points">
                            <mxPoint x="273" y="415"/>
                            <mxPoint x="273" y="420"/>
                        </Array>
                    </mxGeometry>
                </mxCell>
                <mxCell id="10" value="" style="rounded=1;whiteSpace=wrap;html=1;dashed=1;fontSize=15;fillColor=#d80073;fontColor=#ffffff;strokeColor=#A50040;" vertex="1" parent="1">
                    <mxGeometry x="132.5" y="380" width="25" height="650" as="geometry"/>
                </mxCell>
                <mxCell id="19" style="edgeStyle=orthogonalEdgeStyle;html=1;entryX=0.02;entryY=0.025;entryDx=0;entryDy=0;entryPerimeter=0;fontSize=15;fontColor=#F0F0F0;" edge="1" parent="1" source="11" target="18">
                    <mxGeometry relative="1" as="geometry"/>
                </mxCell>
                <mxCell id="11" value="" style="rounded=1;whiteSpace=wrap;html=1;dashed=1;fontSize=15;fillColor=#d80073;fontColor=#ffffff;strokeColor=#A50040;" vertex="1" parent="1">
                    <mxGeometry x="387.5" y="420" width="25" height="70" as="geometry"/>
                </mxCell>
                <mxCell id="13" value="&lt;span style=&quot;text-align: left;&quot;&gt;last30DaysAnalaticsService()&lt;/span&gt;" style="text;html=1;strokeColor=none;fillColor=none;align=center;verticalAlign=middle;whiteSpace=wrap;rounded=0;dashed=1;fontSize=15;fontColor=#F0F0F0;" vertex="1" parent="1">
                    <mxGeometry x="240" y="380" width="60" height="30" as="geometry"/>
                </mxCell>
                <mxCell id="14" value=": AnalaticsUi" style="rounded=0;whiteSpace=wrap;html=1;dashed=1;fontSize=15;fillColor=#008a00;fontColor=#ffffff;strokeColor=#005700;" vertex="1" parent="1">
                    <mxGeometry x="580" y="250" width="120" height="60" as="geometry"/>
                </mxCell>
                <mxCell id="15" value="" style="line;strokeWidth=2;direction=south;html=1;fontSize=15;dashed=1;" vertex="1" parent="1">
                    <mxGeometry x="635" y="310" width="10" height="740" as="geometry"/>
                </mxCell>
                <mxCell id="24" style="edgeStyle=orthogonalEdgeStyle;html=1;entryX=0.02;entryY=0.039;entryDx=0;entryDy=0;entryPerimeter=0;fontSize=15;fontColor=#F0F0F0;exitX=1.066;exitY=0.075;exitDx=0;exitDy=0;exitPerimeter=0;" edge="1" parent="1" source="18" target="23">
                    <mxGeometry relative="1" as="geometry"/>
                </mxCell>
                <mxCell id="18" value="" style="rounded=1;whiteSpace=wrap;html=1;dashed=1;fontSize=15;fillColor=#d80073;fontColor=#ffffff;strokeColor=#A50040;" vertex="1" parent="1">
                    <mxGeometry x="627.5" y="450" width="25" height="580" as="geometry"/>
                </mxCell>
                <mxCell id="20" value="&lt;span style=&quot;text-align: left;&quot;&gt;buildBaseUi()&lt;/span&gt;" style="text;html=1;strokeColor=none;fillColor=none;align=center;verticalAlign=middle;whiteSpace=wrap;rounded=0;dashed=1;fontSize=15;fontColor=#F0F0F0;" vertex="1" parent="1">
                    <mxGeometry x="490" y="430" width="60" height="30" as="geometry"/>
                </mxCell>
                <mxCell id="21" value=": AnalaticsController" style="rounded=0;whiteSpace=wrap;html=1;dashed=1;fontSize=15;fillColor=#008a00;fontColor=#ffffff;strokeColor=#005700;" vertex="1" parent="1">
                    <mxGeometry x="1095" y="250" width="150" height="60" as="geometry"/>
                </mxCell>
                <mxCell id="22" value="" style="line;strokeWidth=2;direction=south;html=1;fontSize=15;dashed=1;" vertex="1" parent="1">
                    <mxGeometry x="1165" y="310" width="10" height="730" as="geometry"/>
                </mxCell>
                <mxCell id="23" value="" style="rounded=1;whiteSpace=wrap;html=1;dashed=1;fontSize=15;fillColor=#d80073;fontColor=#ffffff;strokeColor=#A50040;" vertex="1" parent="1">
                    <mxGeometry x="1157.5" y="480" width="25" height="540" as="geometry"/>
                </mxCell>
                <mxCell id="25" value="&lt;span style=&quot;text-align: left;&quot;&gt;getTotalOrdersPricesForEachCacherForSpecificPeriod(date1, date2)&lt;/span&gt;" style="text;html=1;strokeColor=none;fillColor=none;align=center;verticalAlign=middle;whiteSpace=wrap;rounded=0;dashed=1;fontSize=15;fontColor=#F0F0F0;" vertex="1" parent="1">
                    <mxGeometry x="660" y="450" width="480" height="30" as="geometry"/>
                </mxCell>
                <mxCell id="27" value=": CacherController" style="rounded=0;whiteSpace=wrap;html=1;dashed=1;fontSize=15;fillColor=#008a00;fontColor=#ffffff;strokeColor=#005700;" vertex="1" parent="1">
                    <mxGeometry x="1490" y="250" width="150" height="60" as="geometry"/>
                </mxCell>
                <mxCell id="28" value="" style="line;strokeWidth=2;direction=south;html=1;fontSize=15;dashed=1;" vertex="1" parent="1">
                    <mxGeometry x="1560" y="310" width="10" height="370" as="geometry"/>
                </mxCell>
                <mxCell id="29" value="" style="rounded=1;whiteSpace=wrap;html=1;dashed=1;fontSize=15;fillColor=#d80073;fontColor=#ffffff;strokeColor=#A50040;" vertex="1" parent="1">
                    <mxGeometry x="1552.5" y="520" width="25" height="140" as="geometry"/>
                </mxCell>
                <mxCell id="30" value="" style="endArrow=classic;html=1;fontSize=15;fontColor=#F0F0F0;edgeStyle=orthogonalEdgeStyle;exitX=1.149;exitY=0.202;exitDx=0;exitDy=0;exitPerimeter=0;entryX=0;entryY=0;entryDx=0;entryDy=0;" edge="1" parent="1" source="23" target="29">
                    <mxGeometry width="50" height="50" relative="1" as="geometry">
                        <mxPoint x="1240" y="690" as="sourcePoint"/>
                        <mxPoint x="1290" y="640" as="targetPoint"/>
                        <Array as="points">
                            <mxPoint x="1368" y="522"/>
                            <mxPoint x="1368" y="520"/>
                        </Array>
                    </mxGeometry>
                </mxCell>
                <mxCell id="31" value="&lt;span style=&quot;text-align: left;&quot;&gt;getAllCacheres()&lt;/span&gt;" style="text;html=1;strokeColor=none;fillColor=none;align=center;verticalAlign=middle;whiteSpace=wrap;rounded=0;dashed=1;fontSize=15;fontColor=#F0F0F0;" vertex="1" parent="1">
                    <mxGeometry x="1130" y="490" width="480" height="30" as="geometry"/>
                </mxCell>
                <mxCell id="32" value=": CacherModel" style="rounded=0;whiteSpace=wrap;html=1;dashed=1;fontSize=15;fillColor=#008a00;fontColor=#ffffff;strokeColor=#005700;" vertex="1" parent="1">
                    <mxGeometry x="1850" y="250" width="150" height="60" as="geometry"/>
                </mxCell>
                <mxCell id="33" value="" style="line;strokeWidth=2;direction=south;html=1;fontSize=15;dashed=1;" vertex="1" parent="1">
                    <mxGeometry x="1920" y="310" width="10" height="550" as="geometry"/>
                </mxCell>
                <mxCell id="34" value="" style="rounded=1;whiteSpace=wrap;html=1;dashed=1;fontSize=15;fillColor=#d80073;fontColor=#ffffff;strokeColor=#A50040;" vertex="1" parent="1">
                    <mxGeometry x="1912.5" y="550" width="25" height="120" as="geometry"/>
                </mxCell>
                <mxCell id="35" value="" style="endArrow=classic;html=1;fontSize=15;fontColor=#F0F0F0;edgeStyle=orthogonalEdgeStyle;entryX=0;entryY=0;entryDx=0;entryDy=0;exitX=1;exitY=0.25;exitDx=0;exitDy=0;" edge="1" parent="1" source="29" target="34">
                    <mxGeometry width="50" height="50" relative="1" as="geometry">
                        <mxPoint x="1520" y="640" as="sourcePoint"/>
                        <mxPoint x="1570" y="590" as="targetPoint"/>
                        <Array as="points">
                            <mxPoint x="1820" y="550"/>
                            <mxPoint x="1820" y="550"/>
                        </Array>
                    </mxGeometry>
                </mxCell>
                <mxCell id="36" value="&lt;span style=&quot;text-align: left;&quot;&gt;getAllCacheres()&lt;/span&gt;" style="text;html=1;strokeColor=none;fillColor=none;align=center;verticalAlign=middle;whiteSpace=wrap;rounded=0;dashed=1;fontSize=15;fontColor=#F0F0F0;" vertex="1" parent="1">
                    <mxGeometry x="1510" y="520" width="480" height="30" as="geometry"/>
                </mxCell>
                <mxCell id="37" value="" style="endArrow=classic;html=1;fontSize=15;fontColor=#F0F0F0;exitX=0;exitY=0.5;exitDx=0;exitDy=0;dashed=1;" edge="1" parent="1" source="34">
                    <mxGeometry width="50" height="50" relative="1" as="geometry">
                        <mxPoint x="1520" y="640" as="sourcePoint"/>
                        <mxPoint x="1580" y="610" as="targetPoint"/>
                    </mxGeometry>
                </mxCell>
                <mxCell id="38" value="&lt;div style=&quot;text-align: left;&quot;&gt;&lt;span style=&quot;background-color: initial;&quot;&gt;SetResults of cachers&lt;/span&gt;&lt;/div&gt;" style="text;html=1;strokeColor=none;fillColor=none;align=center;verticalAlign=middle;whiteSpace=wrap;rounded=0;dashed=1;fontSize=15;fontColor=#F0F0F0;" vertex="1" parent="1">
                    <mxGeometry x="1600" y="585" width="300" height="30" as="geometry"/>
                </mxCell>
                <mxCell id="39" value="" style="endArrow=classic;html=1;dashed=1;fontSize=15;fontColor=#F0F0F0;exitX=0;exitY=0.75;exitDx=0;exitDy=0;edgeStyle=orthogonalEdgeStyle;entryX=1.158;entryY=0.282;entryDx=0;entryDy=0;entryPerimeter=0;" edge="1" parent="1" source="29" target="23">
                    <mxGeometry width="50" height="50" relative="1" as="geometry">
                        <mxPoint x="1380" y="630" as="sourcePoint"/>
                        <mxPoint x="1430" y="580" as="targetPoint"/>
                    </mxGeometry>
                </mxCell>
                <mxCell id="40" value="&lt;div style=&quot;text-align: left;&quot;&gt;&lt;span style=&quot;background-color: initial;&quot;&gt;ArrayList of cachers&lt;/span&gt;&lt;/div&gt;" style="text;html=1;strokeColor=none;fillColor=none;align=center;verticalAlign=middle;whiteSpace=wrap;rounded=0;dashed=1;fontSize=15;fontColor=#F0F0F0;" vertex="1" parent="1">
                    <mxGeometry x="1220" y="595" width="300" height="30" as="geometry"/>
                </mxCell>
                <mxCell id="44" value=": OrderController" style="rounded=0;whiteSpace=wrap;html=1;dashed=1;fontSize=15;fillColor=#008a00;fontColor=#ffffff;strokeColor=#005700;" vertex="1" parent="1">
                    <mxGeometry x="2130" y="250" width="150" height="60" as="geometry"/>
                </mxCell>
                <mxCell id="45" value="" style="line;strokeWidth=2;direction=south;html=1;fontSize=15;dashed=1;" vertex="1" parent="1">
                    <mxGeometry x="2200" y="310" width="10" height="730" as="geometry"/>
                </mxCell>
                <mxCell id="46" value=": OrderModel" style="rounded=0;whiteSpace=wrap;html=1;dashed=1;fontSize=15;fillColor=#008a00;fontColor=#ffffff;strokeColor=#005700;" vertex="1" parent="1">
                    <mxGeometry x="2430" y="250" width="150" height="60" as="geometry"/>
                </mxCell>
                <mxCell id="47" value="" style="line;strokeWidth=2;direction=south;html=1;fontSize=15;dashed=1;" vertex="1" parent="1">
                    <mxGeometry x="2500" y="310" width="10" height="740" as="geometry"/>
                </mxCell>
                <mxCell id="48" value="" style="rounded=1;whiteSpace=wrap;html=1;dashed=1;fontSize=15;fillColor=#d80073;fontColor=#ffffff;strokeColor=#A50040;" vertex="1" parent="1">
                    <mxGeometry x="2192.5" y="690" width="25" height="330" as="geometry"/>
                </mxCell>
                <mxCell id="49" value="" style="endArrow=classic;html=1;fontSize=15;fontColor=#F0F0F0;edgeStyle=orthogonalEdgeStyle;entryX=-0.14;entryY=0.092;entryDx=0;entryDy=0;entryPerimeter=0;exitX=1.035;exitY=0.434;exitDx=0;exitDy=0;exitPerimeter=0;" edge="1" parent="1" source="23" target="48">
                    <mxGeometry width="50" height="50" relative="1" as="geometry">
                        <mxPoint x="1190" y="701" as="sourcePoint"/>
                        <mxPoint x="1540" y="710" as="targetPoint"/>
                    </mxGeometry>
                </mxCell>
                <mxCell id="50" value="&lt;div style=&quot;text-align: left;&quot;&gt;&lt;span style=&quot;background-color: initial;&quot;&gt;For each cacher of cachers:&amp;nbsp;&amp;nbsp;&lt;/span&gt;&lt;/div&gt;&lt;span style=&quot;text-align: left;&quot;&gt;&lt;font color=&quot;#ededed&quot;&gt;getTotalPriceOfOrdersWithCacherIdForSpecificPeriod(cacher, date1, date2)&lt;/font&gt;&lt;/span&gt;" style="text;html=1;strokeColor=none;fillColor=none;align=center;verticalAlign=middle;whiteSpace=wrap;rounded=0;dashed=1;fontSize=15;fontColor=#F0F0F0;" vertex="1" parent="1">
                    <mxGeometry x="1130" y="680" width="950" height="30" as="geometry"/>
                </mxCell>
                <mxCell id="55" style="edgeStyle=orthogonalEdgeStyle;html=1;entryX=0.958;entryY=0.542;entryDx=0;entryDy=0;fontSize=15;fontColor=#EDEDED;dashed=1;entryPerimeter=0;" edge="1" parent="1" source="51" target="48">
                    <mxGeometry relative="1" as="geometry"/>
                </mxCell>
                <mxCell id="51" value="" style="rounded=1;whiteSpace=wrap;html=1;dashed=1;fontSize=15;fillColor=#d80073;fontColor=#ffffff;strokeColor=#A50040;" vertex="1" parent="1">
                    <mxGeometry x="2492.5" y="720" width="25" height="310" as="geometry"/>
                </mxCell>
                <mxCell id="52" value="" style="endArrow=classic;html=1;fontSize=15;fontColor=#EDEDED;edgeStyle=orthogonalEdgeStyle;entryX=0;entryY=0;entryDx=0;entryDy=0;exitX=1;exitY=0.25;exitDx=0;exitDy=0;" edge="1" parent="1" source="48" target="51">
                    <mxGeometry width="50" height="50" relative="1" as="geometry">
                        <mxPoint x="2170" y="700" as="sourcePoint"/>
                        <mxPoint x="2220" y="650" as="targetPoint"/>
                        <Array as="points">
                            <mxPoint x="2492" y="720"/>
                        </Array>
                    </mxGeometry>
                </mxCell>
                <mxCell id="54" value="&lt;span style=&quot;text-align: left;&quot;&gt;getTotalPriceForOrdersInSpeceficPeriodForSpecificCacher( date1, date2, cacher)&lt;/span&gt;" style="text;html=1;strokeColor=none;fillColor=none;align=center;verticalAlign=middle;whiteSpace=wrap;rounded=0;dashed=1;fontSize=15;fontColor=#EDEDED;" vertex="1" parent="1">
                    <mxGeometry x="2210" y="690" width="580" height="30" as="geometry"/>
                </mxCell>
                <mxCell id="56" value="ResultSet" style="text;html=1;strokeColor=none;fillColor=none;align=center;verticalAlign=middle;whiteSpace=wrap;rounded=0;dashed=1;fontSize=15;fontColor=#EDEDED;" vertex="1" parent="1">
                    <mxGeometry x="2330" y="840" width="60" height="30" as="geometry"/>
                </mxCell>
                <mxCell id="57" value="" style="endArrow=classic;html=1;dashed=1;fontSize=15;fontColor=#EDEDED;edgeStyle=orthogonalEdgeStyle;exitX=0.005;exitY=0.365;exitDx=0;exitDy=0;entryX=1.189;entryY=0.632;entryDx=0;entryDy=0;entryPerimeter=0;exitPerimeter=0;" edge="1" parent="1" source="48" target="23">
                    <mxGeometry width="50" height="50" relative="1" as="geometry">
                        <mxPoint x="2190" y="920" as="sourcePoint"/>
                        <mxPoint x="2240" y="870" as="targetPoint"/>
                    </mxGeometry>
                </mxCell>
                <mxCell id="58" value="double" style="text;html=1;strokeColor=none;fillColor=none;align=center;verticalAlign=middle;whiteSpace=wrap;rounded=0;dashed=1;fontSize=15;fontColor=#EDEDED;" vertex="1" parent="1">
                    <mxGeometry x="1670" y="780" width="60" height="30" as="geometry"/>
                </mxCell>
                <mxCell id="59" value="" style="endArrow=classic;html=1;dashed=1;fontSize=15;fontColor=#EDEDED;edgeStyle=orthogonalEdgeStyle;entryX=1.158;entryY=0.705;entryDx=0;entryDy=0;entryPerimeter=0;exitX=-0.103;exitY=0.706;exitDx=0;exitDy=0;exitPerimeter=0;" edge="1" parent="1" source="23" target="18">
                    <mxGeometry width="50" height="50" relative="1" as="geometry">
                        <mxPoint x="1153" y="923" as="sourcePoint"/>
                        <mxPoint x="1130" y="730" as="targetPoint"/>
                    </mxGeometry>
                </mxCell>
                <mxCell id="61" value="&lt;span style=&quot;text-align: left;&quot;&gt;HashMap&amp;lt;Integer, String, double&amp;gt;&lt;/span&gt;" style="text;html=1;strokeColor=none;fillColor=none;align=center;verticalAlign=middle;whiteSpace=wrap;rounded=0;dashed=1;fontSize=15;fontColor=#F0F0F0;" vertex="1" parent="1">
                    <mxGeometry x="670" y="830" width="480" height="30" as="geometry"/>
                </mxCell>
                <mxCell id="62" value="" style="endArrow=classic;html=1;fontSize=15;fontColor=#EDEDED;edgeStyle=orthogonalEdgeStyle;exitX=1.005;exitY=0.792;exitDx=0;exitDy=0;exitPerimeter=0;entryX=-0.011;entryY=0.8;entryDx=0;entryDy=0;entryPerimeter=0;" edge="1" parent="1" source="18" target="23">
                    <mxGeometry width="50" height="50" relative="1" as="geometry">
                        <mxPoint x="770" y="840" as="sourcePoint"/>
                        <mxPoint x="820" y="790" as="targetPoint"/>
                    </mxGeometry>
                </mxCell>
                <mxCell id="63" value="&lt;font style=&quot;text-align: left;&quot;&gt;getTotalPriceFor&lt;/font&gt;&lt;span style=&quot;text-align: left;&quot;&gt;AllOrdersIn&lt;/span&gt;&lt;font style=&quot;text-align: left;&quot;&gt;SpecificPeriod&lt;/font&gt;&lt;font style=&quot;text-align: left;&quot;&gt;( date1, date2)&lt;/font&gt;" style="text;html=1;strokeColor=none;fillColor=none;align=center;verticalAlign=middle;whiteSpace=wrap;rounded=0;dashed=1;fontSize=15;fontColor=#F0F0F0;" vertex="1" parent="1">
                    <mxGeometry x="660" y="880" width="480" height="30" as="geometry"/>
                </mxCell>
                <mxCell id="64" value="" style="endArrow=classic;html=1;fontSize=15;fontColor=#F0F0F0;edgeStyle=orthogonalEdgeStyle;exitX=1.158;exitY=0.803;exitDx=0;exitDy=0;exitPerimeter=0;entryX=0.005;entryY=0.689;entryDx=0;entryDy=0;entryPerimeter=0;" edge="1" parent="1" source="23" target="48">
                    <mxGeometry width="50" height="50" relative="1" as="geometry">
                        <mxPoint x="1500" y="940" as="sourcePoint"/>
                        <mxPoint x="1550" y="890" as="targetPoint"/>
                    </mxGeometry>
                </mxCell>
                <mxCell id="65" value="&lt;span style=&quot;text-align: left;&quot;&gt;getTotalPriceOfOrdersWithSpecificPeriod(date1, date2)&lt;/span&gt;" style="text;html=1;strokeColor=none;fillColor=none;align=center;verticalAlign=middle;whiteSpace=wrap;rounded=0;dashed=1;fontSize=15;fontColor=#F0F0F0;" vertex="1" parent="1">
                    <mxGeometry x="1520" y="880" width="480" height="30" as="geometry"/>
                </mxCell>
                <mxCell id="66" value="" style="endArrow=classic;html=1;fontSize=15;fontColor=#F0F0F0;edgeStyle=orthogonalEdgeStyle;exitX=1.082;exitY=0.766;exitDx=0;exitDy=0;exitPerimeter=0;entryX=-0.026;entryY=0.721;entryDx=0;entryDy=0;entryPerimeter=0;" edge="1" parent="1" source="48" target="51">
                    <mxGeometry width="50" height="50" relative="1" as="geometry">
                        <mxPoint x="2260" y="850" as="sourcePoint"/>
                        <mxPoint x="2310" y="800" as="targetPoint"/>
                    </mxGeometry>
                </mxCell>
                <mxCell id="68" value="&lt;font style=&quot;text-align: left;&quot;&gt;getTotalPriceFor&lt;/font&gt;&lt;span style=&quot;text-align: left;&quot;&gt;AllOrdersIn&lt;/span&gt;&lt;font style=&quot;text-align: left;&quot;&gt;SpecificPeriod&lt;/font&gt;&lt;font style=&quot;text-align: left;&quot;&gt;( date1, date2)&lt;/font&gt;" style="text;html=1;strokeColor=none;fillColor=none;align=center;verticalAlign=middle;whiteSpace=wrap;rounded=0;dashed=1;fontSize=15;fontColor=#F0F0F0;" vertex="1" parent="1">
                    <mxGeometry x="2180" y="910" width="480" height="30" as="geometry"/>
                </mxCell>
                <mxCell id="69" value="" style="endArrow=classic;html=1;fontSize=15;fontColor=#F0F0F0;exitX=-0.088;exitY=0.805;exitDx=0;exitDy=0;exitPerimeter=0;edgeStyle=orthogonalEdgeStyle;dashed=1;" edge="1" parent="1" source="51">
                    <mxGeometry width="50" height="50" relative="1" as="geometry">
                        <mxPoint x="2250" y="880" as="sourcePoint"/>
                        <mxPoint x="2220" y="970" as="targetPoint"/>
                    </mxGeometry>
                </mxCell>
                <mxCell id="70" value="&lt;div style=&quot;text-align: left;&quot;&gt;&lt;span style=&quot;background-color: initial;&quot;&gt;resultSet&lt;/span&gt;&lt;/div&gt;" style="text;html=1;strokeColor=none;fillColor=none;align=center;verticalAlign=middle;whiteSpace=wrap;rounded=0;dashed=1;fontSize=15;fontColor=#F0F0F0;" vertex="1" parent="1">
                    <mxGeometry x="2260" y="940" width="170" height="30" as="geometry"/>
                </mxCell>
                <mxCell id="71" value="" style="endArrow=classic;html=1;dashed=1;fontSize=15;fontColor=#F0F0F0;exitX=-0.088;exitY=0.915;exitDx=0;exitDy=0;exitPerimeter=0;edgeStyle=orthogonalEdgeStyle;entryX=1.128;entryY=0.939;entryDx=0;entryDy=0;entryPerimeter=0;" edge="1" parent="1" source="48" target="23">
                    <mxGeometry width="50" height="50" relative="1" as="geometry">
                        <mxPoint x="2250" y="880" as="sourcePoint"/>
                        <mxPoint x="2300" y="830" as="targetPoint"/>
                    </mxGeometry>
                </mxCell>
                <mxCell id="72" value="&lt;div style=&quot;text-align: left;&quot;&gt;&lt;span style=&quot;background-color: initial;&quot;&gt;double&lt;/span&gt;&lt;/div&gt;" style="text;html=1;strokeColor=none;fillColor=none;align=center;verticalAlign=middle;whiteSpace=wrap;rounded=0;dashed=1;fontSize=15;fontColor=#F0F0F0;" vertex="1" parent="1">
                    <mxGeometry x="1615" y="960" width="170" height="30" as="geometry"/>
                </mxCell>
                <mxCell id="73" value="" style="endArrow=classic;html=1;dashed=1;fontSize=15;fontColor=#F0F0F0;exitX=-0.165;exitY=0.971;exitDx=0;exitDy=0;exitPerimeter=0;edgeStyle=orthogonalEdgeStyle;entryX=1.158;entryY=0.95;entryDx=0;entryDy=0;entryPerimeter=0;" edge="1" parent="1" source="23" target="18">
                    <mxGeometry width="50" height="50" relative="1" as="geometry">
                        <mxPoint x="870" y="920" as="sourcePoint"/>
                        <mxPoint x="920" y="870" as="targetPoint"/>
                    </mxGeometry>
                </mxCell>
                <mxCell id="74" value="&lt;div style=&quot;text-align: left;&quot;&gt;&lt;span style=&quot;background-color: initial;&quot;&gt;double&lt;/span&gt;&lt;/div&gt;" style="text;html=1;strokeColor=none;fillColor=none;align=center;verticalAlign=middle;whiteSpace=wrap;rounded=0;dashed=1;fontSize=15;fontColor=#F0F0F0;" vertex="1" parent="1">
                    <mxGeometry x="770" y="970" width="170" height="30" as="geometry"/>
                </mxCell>
                <mxCell id="75" value="" style="endArrow=classic;html=1;dashed=1;fontSize=15;fontColor=#F0F0F0;exitX=0.051;exitY=0.982;exitDx=0;exitDy=0;exitPerimeter=0;entryX=1.082;entryY=0.98;entryDx=0;entryDy=0;entryPerimeter=0;edgeStyle=orthogonalEdgeStyle;" edge="1" parent="1" source="18" target="10">
                    <mxGeometry width="50" height="50" relative="1" as="geometry">
                        <mxPoint x="470" y="1040" as="sourcePoint"/>
                        <mxPoint x="520" y="990" as="targetPoint"/>
                    </mxGeometry>
                </mxCell>
                <mxCell id="76" value="&lt;div style=&quot;text-align: left;&quot;&gt;&lt;span style=&quot;background-color: initial;&quot;&gt;View the analatics&lt;/span&gt;&lt;/div&gt;" style="text;html=1;strokeColor=none;fillColor=none;align=center;verticalAlign=middle;whiteSpace=wrap;rounded=0;dashed=1;fontSize=15;fontColor=#F0F0F0;" vertex="1" parent="1">
                    <mxGeometry x="300" y="990" width="170" height="30" as="geometry"/>
                </mxCell>
            </root>
        </mxGraphModel>
    </diagram>
</mxfile>